<mxfile host="65bd71144e">
    <diagram id="bhRlQUJx3Vvcl1FZk_Kn" name="Page-1">
        <mxGraphModel dx="495" dy="332" grid="1" gridSize="10" guides="1" tooltips="1" connect="1" arrows="1" fold="1" page="1" pageScale="1" pageWidth="850" pageHeight="1100" math="0" shadow="0">
            <root>
                <mxCell id="0"/>
                <mxCell id="1" parent="0"/>
                <mxCell id="2" value="&lt;h1&gt;Logo&lt;/h1&gt;" style="rounded=1;whiteSpace=wrap;html=1;" vertex="1" parent="1">
                    <mxGeometry x="20" y="20" width="150" height="70" as="geometry"/>
                </mxCell>
                <mxCell id="3" value="Layer 1" style="strokeWidth=1;shadow=0;dashed=0;align=center;html=1;shape=mxgraph.mockup.navigation.anchor;fontSize=17;fontColor=#666666;fontStyle=1;" vertex="1" parent="1">
                    <mxGeometry x="30" y="140" width="60" height="30" as="geometry"/>
                </mxCell>
                <mxCell id="4" value="&gt;" style="strokeWidth=1;shadow=0;dashed=0;align=center;html=1;shape=mxgraph.mockup.navigation.anchor;fontSize=24;fontColor=#aaaaaa;fontStyle=1;" vertex="1" parent="1">
                    <mxGeometry x="90" y="140" width="20" height="30" as="geometry"/>
                </mxCell>
                <mxCell id="5" value="Layer 2" style="strokeWidth=1;shadow=0;dashed=0;align=center;html=1;shape=mxgraph.mockup.navigation.anchor;fontSize=17;fontColor=#666666;fontStyle=1;" vertex="1" parent="1">
                    <mxGeometry x="110" y="140" width="60" height="30" as="geometry"/>
                </mxCell>
                <mxCell id="6" value="&gt;" style="strokeWidth=1;shadow=0;dashed=0;align=center;html=1;shape=mxgraph.mockup.navigation.anchor;fontSize=24;fontColor=#aaaaaa;fontStyle=1;" vertex="1" parent="1">
                    <mxGeometry x="170" y="140" width="20" height="30" as="geometry"/>
                </mxCell>
                <mxCell id="7" value="Layer 3" style="strokeWidth=1;shadow=0;dashed=0;align=center;html=1;shape=mxgraph.mockup.navigation.anchor;fontSize=17;fontColor=#666666;fontStyle=1;" vertex="1" parent="1">
                    <mxGeometry x="190" y="140" width="60" height="30" as="geometry"/>
                </mxCell>
                <mxCell id="8" value="&gt;" style="strokeWidth=1;shadow=0;dashed=0;align=center;html=1;shape=mxgraph.mockup.navigation.anchor;fontSize=24;fontColor=#aaaaaa;fontStyle=1;" vertex="1" parent="1">
                    <mxGeometry x="250" y="140" width="20" height="30" as="geometry"/>
                </mxCell>
                <mxCell id="9" value="Layer 4" style="strokeWidth=1;shadow=0;dashed=0;align=center;html=1;shape=mxgraph.mockup.navigation.anchor;fontSize=17;fontColor=#008cff;fontStyle=1;" vertex="1" parent="1">
                    <mxGeometry x="270" y="140" width="60" height="30" as="geometry"/>
                </mxCell>
                <mxCell id="10" value="Search" style="strokeWidth=1;shadow=0;dashed=0;align=center;html=1;shape=mxgraph.mockup.text.textBox;fontColor=#ffffff;align=left;fontSize=17;spacingLeft=4;spacingTop=-3;strokeColor=#006EAF;mainText=;fillColor=#1ba1e2;" vertex="1" parent="1">
                    <mxGeometry x="360" y="40" width="150" height="30" as="geometry"/>
                </mxCell>
                <mxCell id="11" value="Nex" style="strokeWidth=1;shadow=0;dashed=0;align=center;html=1;shape=mxgraph.mockup.buttons.button;strokeColor=#666666;fontColor=#ffffff;mainText=;buttonStyle=round;fontSize=17;fontStyle=1;fillColor=#008cff;whiteSpace=wrap;" vertex="1" parent="1">
                    <mxGeometry x="145" y="440" width="150" height="50" as="geometry"/>
                </mxCell>
                <mxCell id="12" value="Ten cua nhan vien" style="shape=ext;double=1;rounded=1;whiteSpace=wrap;html=1;strokeColor=#050505;fillColor=#191919;" vertex="1" parent="1">
                    <mxGeometry x="30" y="310" width="120" height="80" as="geometry"/>
                </mxCell>
                <mxCell id="13" value="Ten cua nhan vien" style="shape=ext;double=1;rounded=1;whiteSpace=wrap;html=1;strokeColor=#050505;fillColor=#191919;" vertex="1" parent="1">
                    <mxGeometry x="160" y="310" width="120" height="80" as="geometry"/>
                </mxCell>
                <mxCell id="14" value="Ten cua nhan vien" style="shape=ext;double=1;rounded=1;whiteSpace=wrap;html=1;strokeColor=#050505;fillColor=#191919;" vertex="1" parent="1">
                    <mxGeometry x="300" y="310" width="120" height="80" as="geometry"/>
                </mxCell>
                <mxCell id="15" value="" style="strokeWidth=1;shadow=0;dashed=0;align=center;html=1;shape=mxgraph.mockup.forms.rrect;rSize=0;strokeColor=#999999;fillColor=#191919;" vertex="1" parent="1">
                    <mxGeometry x="20" y="100" width="498" height="30" as="geometry"/>
                </mxCell>
                <mxCell id="16" value="File" style="strokeColor=inherit;fillColor=inherit;gradientColor=inherit;strokeWidth=1;shadow=0;dashed=0;align=center;html=1;shape=mxgraph.mockup.forms.rrect;rSize=0;fontSize=17;fontColor=#666666;" vertex="1" parent="15">
                    <mxGeometry width="83" height="30" as="geometry"/>
                </mxCell>
                <mxCell id="17" value="Edit" style="strokeColor=inherit;fillColor=inherit;gradientColor=inherit;strokeWidth=1;shadow=0;dashed=0;align=center;html=1;shape=mxgraph.mockup.forms.rrect;rSize=0;fontSize=17;fontColor=#666666;" vertex="1" parent="15">
                    <mxGeometry x="83" width="83" height="30" as="geometry"/>
                </mxCell>
                <mxCell id="18" value="Options" style="strokeColor=inherit;fillColor=inherit;gradientColor=inherit;strokeWidth=1;shadow=0;dashed=0;align=center;html=1;shape=mxgraph.mockup.forms.rrect;rSize=0;fontSize=17;fontColor=#666666;" vertex="1" parent="15">
                    <mxGeometry x="166" width="83" height="30" as="geometry"/>
                </mxCell>
                <mxCell id="19" value="Tools" style="strokeColor=inherit;fillColor=inherit;gradientColor=inherit;strokeWidth=1;shadow=0;dashed=0;align=center;html=1;shape=mxgraph.mockup.forms.rrect;rSize=0;fontSize=17;fontColor=#666666;" vertex="1" parent="15">
                    <mxGeometry x="249" width="83" height="30" as="geometry"/>
                </mxCell>
                <mxCell id="20" value="Window" style="strokeColor=inherit;fillColor=inherit;gradientColor=inherit;strokeWidth=1;shadow=0;dashed=0;align=center;html=1;shape=mxgraph.mockup.forms.rrect;rSize=0;fontSize=17;fontColor=#666666;" vertex="1" parent="15">
                    <mxGeometry x="332" width="83" height="30" as="geometry"/>
                </mxCell>
                <mxCell id="21" value="Help" style="strokeColor=inherit;fillColor=inherit;gradientColor=inherit;strokeWidth=1;shadow=0;dashed=0;align=center;html=1;shape=mxgraph.mockup.forms.rrect;rSize=0;fontSize=17;fontColor=#666666;" vertex="1" parent="15">
                    <mxGeometry x="415" width="83" height="30" as="geometry"/>
                </mxCell>
                <mxCell id="23" value="Ten cua nhan vien" style="shape=ext;double=1;rounded=1;whiteSpace=wrap;html=1;strokeColor=#050505;fillColor=#191919;" vertex="1" parent="1">
                    <mxGeometry x="30" y="210" width="120" height="80" as="geometry"/>
                </mxCell>
                <mxCell id="24" value="Ten cua nhan vien" style="shape=ext;double=1;rounded=1;whiteSpace=wrap;html=1;strokeColor=#050505;fillColor=#191919;" vertex="1" parent="1">
                    <mxGeometry x="160" y="210" width="120" height="80" as="geometry"/>
                </mxCell>
                <mxCell id="25" value="Ten cua nhan vien" style="shape=ext;double=1;rounded=1;whiteSpace=wrap;html=1;strokeColor=#050505;fillColor=#191919;" vertex="1" parent="1">
                    <mxGeometry x="300" y="210" width="120" height="80" as="geometry"/>
                </mxCell>
            </root>
        </mxGraphModel>
    </diagram>
</mxfile>